<svg width="226" height="189" viewBox="0 0 226 189" fill="none" xmlns="http://www.w3.org/2000/svg">
<path d="M28.25 23.625C28.25 17.0912 21.9379 11.8125 14.125 11.8125C6.31211 11.8125 0 17.0912 0 23.625V147.656C0 163.972 15.8023 177.188 35.3125 177.188H211.875C219.688 177.188 226 171.909 226 165.375C226 158.841 219.688 153.562 211.875 153.562H35.3125C31.4281 153.562 28.25 150.905 28.25 147.656V23.625ZM207.726 55.5926C213.243 50.9783 213.243 43.4848 207.726 38.8705C202.208 34.2563 193.248 34.2563 187.73 38.8705L141.25 77.7779L115.913 56.5893C110.396 51.975 101.435 51.975 95.9176 56.5893L46.4801 97.933C40.9625 102.547 40.9625 110.041 46.4801 114.655C51.9977 119.269 60.9582 119.269 66.4758 114.655L105.938 81.6908L131.274 102.879C136.792 107.494 145.752 107.494 151.27 102.879L207.77 55.6295L207.726 55.5926Z" fill="white"/>
</svg>
