<svg width="43" height="39" viewBox="0 0 43 39" fill="none" xmlns="http://www.w3.org/2000/svg">
<g clip-path="url(#clip0_19_13)">
<path d="M13.8214 10.9688V14.625H29.1786V10.9688C29.1786 7.60195 25.7424 4.875 21.5 4.875C17.2576 4.875 13.8214 7.60195 13.8214 10.9688ZM7.67857 14.625V10.9688C7.67857 4.91309 13.8694 0 21.5 0C29.1306 0 35.3214 4.91309 35.3214 10.9688V14.625H36.8571C40.2453 14.625 43 16.8111 43 19.5V34.125C43 36.8139 40.2453 39 36.8571 39H6.14286C2.75469 39 0 36.8139 0 34.125V19.5C0 16.8111 2.75469 14.625 6.14286 14.625H7.67857Z" fill="#1EA0A6"/>
</g>
<defs>
<clipPath id="clip0_19_13">
<rect width="43" height="39" fill="white"/>
</clipPath>
</defs>
</svg>
