<svg width="126" height="189" viewBox="0 0 126 189" fill="none" xmlns="http://www.w3.org/2000/svg">
<g clip-path="url(#clip0_2202_837)">
<path d="M81 0H45H36C31.0219 0 27 5.27871 27 11.8125C27 18.3463 31.0219 23.625 36 23.625V72.6469C36 77.0027 35.0719 81.3217 33.3281 85.0131L2.89688 149.945C1.0125 154.005 0 158.62 0 163.382C0 177.52 8.74688 189 19.5188 189H106.481C117.253 189 126 177.52 126 163.382C126 158.657 124.988 154.005 123.103 149.945L92.6719 85.05C90.9281 81.3217 90 77.0396 90 72.6838V23.625C94.9781 23.625 99 18.3463 99 11.8125C99 5.27871 94.9781 0 90 0H81ZM54 72.6469V23.625H72V72.6469C72 81.3955 73.8563 89.9596 77.3438 97.4162L87.0469 118.125H38.9531L48.6562 97.4162C52.1437 89.9596 54 81.3955 54 72.6469Z" fill="white"/>
</g>
<defs>
<clipPath id="clip0_2202_837">
<rect width="126" height="189" fill="white"/>
</clipPath>
</defs>
</svg>
