<svg width="43" height="39" viewBox="0 0 43 39" fill="none" xmlns="http://www.w3.org/2000/svg">
<g clip-path="url(#clip0_19_7)">
<path d="M21.5 21.9375C24.7075 21.9375 27.7836 20.7819 30.0516 18.7248C32.3196 16.6678 33.5938 13.8778 33.5938 10.9688C33.5938 8.05966 32.3196 5.26971 30.0516 3.21267C27.7836 1.15563 24.7075 0 21.5 0C18.2925 0 15.2164 1.15563 12.9484 3.21267C10.6804 5.26971 9.40625 8.05966 9.40625 10.9688C9.40625 13.8778 10.6804 16.6678 12.9484 18.7248C15.2164 20.7819 18.2925 21.9375 21.5 21.9375ZM13.5467 24.375C6.06367 24.375 0 29.8746 0 36.6615C0 37.9564 1.15898 39 2.57832 39H40.4217C41.8494 39 43 37.9488 43 36.6615C43 29.8746 36.9363 24.375 29.4533 24.375H13.5467Z" fill="#1EA0A6"/>
</g>
<defs>
<clipPath id="clip0_19_7">
<rect width="43" height="39" fill="white"/>
</clipPath>
</defs>
</svg>
