<svg width="226" height="189" viewBox="0 0 226 189" fill="none" xmlns="http://www.w3.org/2000/svg">
<g clip-path="url(#clip0_2202_826)">
<path d="M37.6667 0C16.8911 0 0 10.5943 0 23.625V165.375C0 178.406 16.8911 189 37.6667 189H188.333C209.109 189 226 178.406 226 165.375V59.0625H150.667C140.249 59.0625 131.833 53.7838 131.833 47.25V0H37.6667ZM150.667 0V47.25H226L150.667 0ZM65.9167 94.5H160.083C165.263 94.5 169.5 97.1578 169.5 100.406C169.5 103.655 165.263 106.312 160.083 106.312H65.9167C60.7375 106.312 56.5 103.655 56.5 100.406C56.5 97.1578 60.7375 94.5 65.9167 94.5ZM65.9167 118.125H160.083C165.263 118.125 169.5 120.783 169.5 124.031C169.5 127.28 165.263 129.938 160.083 129.938H65.9167C60.7375 129.938 56.5 127.28 56.5 124.031C56.5 120.783 60.7375 118.125 65.9167 118.125ZM65.9167 141.75H160.083C165.263 141.75 169.5 144.408 169.5 147.656C169.5 150.905 165.263 153.562 160.083 153.562H65.9167C60.7375 153.562 56.5 150.905 56.5 147.656C56.5 144.408 60.7375 141.75 65.9167 141.75Z" fill="white"/>
</g>
<defs>
<clipPath id="clip0_2202_826">
<rect width="226" height="189" fill="white"/>
</clipPath>
</defs>
</svg>
