<svg width="226" height="189" viewBox="0 0 226 189" fill="none" xmlns="http://www.w3.org/2000/svg">
<g clip-path="url(#clip0_2202_816)">
<path d="M0 94.5C0 69.437 11.9053 45.4006 33.0969 27.6784C54.2885 9.95622 83.0305 0 113 0C142.969 0 171.711 9.95622 192.903 27.6784C214.095 45.4006 226 69.437 226 94.5C226 119.563 214.095 143.599 192.903 161.322C171.711 179.044 142.969 189 113 189C83.0305 189 54.2885 179.044 33.0969 161.322C11.9053 143.599 0 119.563 0 94.5ZM127.125 35.4375C127.125 32.3046 125.637 29.3001 122.988 27.0848C120.339 24.8695 116.746 23.625 113 23.625C109.254 23.625 105.661 24.8695 103.012 27.0848C100.363 29.3001 98.875 32.3046 98.875 35.4375C98.875 38.5704 100.363 41.5749 103.012 43.7902C105.661 46.0055 109.254 47.25 113 47.25C116.746 47.25 120.339 46.0055 122.988 43.7902C125.637 41.5749 127.125 38.5704 127.125 35.4375ZM113 153.562C128.582 153.562 141.25 142.968 141.25 129.938C141.25 123.514 138.204 117.719 133.261 113.474L161.555 59.69C163.894 55.2234 161.466 49.9816 156.125 48.0252C150.784 46.0688 144.516 48.099 142.177 52.5656L113.839 106.312C113.574 106.312 113.265 106.312 113 106.312C97.4184 106.312 84.75 116.907 84.75 129.938C84.75 142.968 97.4184 153.562 113 153.562ZM77.6875 53.1562C77.6875 50.0234 76.1993 47.0188 73.5504 44.8036C70.9014 42.5883 67.3087 41.3438 63.5625 41.3438C59.8163 41.3438 56.2236 42.5883 53.5746 44.8036C50.9257 47.0188 49.4375 50.0234 49.4375 53.1562C49.4375 56.2891 50.9257 59.2937 53.5746 61.5089C56.2236 63.7242 59.8163 64.9688 63.5625 64.9688C67.3087 64.9688 70.9014 63.7242 73.5504 61.5089C76.1993 59.2937 77.6875 56.2891 77.6875 53.1562ZM42.375 106.312C46.1212 106.312 49.7139 105.068 52.3629 102.853C55.0118 100.637 56.5 97.6329 56.5 94.5C56.5 91.3671 55.0118 88.3626 52.3629 86.1473C49.7139 83.932 46.1212 82.6875 42.375 82.6875C38.6288 82.6875 35.0361 83.932 32.3871 86.1473C29.7382 88.3626 28.25 91.3671 28.25 94.5C28.25 97.6329 29.7382 100.637 32.3871 102.853C35.0361 105.068 38.6288 106.312 42.375 106.312ZM197.75 94.5C197.75 91.3671 196.262 88.3626 193.613 86.1473C190.964 83.932 187.371 82.6875 183.625 82.6875C179.879 82.6875 176.286 83.932 173.637 86.1473C170.988 88.3626 169.5 91.3671 169.5 94.5C169.5 97.6329 170.988 100.637 173.637 102.853C176.286 105.068 179.879 106.312 183.625 106.312C187.371 106.312 190.964 105.068 193.613 102.853C196.262 100.637 197.75 97.6329 197.75 94.5Z" fill="white"/>
</g>
<defs>
<clipPath id="clip0_2202_816">
<rect width="226" height="189" fill="white"/>
</clipPath>
</defs>
</svg>
