<svg height="274" viewBox="0 0 0 274" fill="none" xmlns="http://www.w3.org/2000/svg">
<path fill-rule="evenodd" clip-rule="evenodd" d="M-191.83 3.78656C-222.793 14.0749 -222.472 45.1621 -246.146 62.0215C-259.601 71.6034 -279.575 75.4191 -298.224 79.5557C-333.459 87.3711 -389.206 74.8457 -405.132 97.286C-419.785 117.932 -351.555 132.06 -351.708 154.917C-351.889 181.949 -431.392 205.407 -405.995 226.425C-377.915 249.664 -318.545 218.149 -273.923 219.293C-254.681 219.787 -236.748 225.303 -219.63 231.204C-196.219 239.274 -179.642 254.58 -154.768 260.365C-122.818 267.797 -84.3646 281.023 -55.3181 269.422C-27.436 258.287 -24.799 230.063 -24.4864 208.333C-24.2037 188.684 -58.0386 172.82 -53.6487 153.391C-48.9457 132.577 5.61731 122.711 -0.473821 102.059C-6.14482 82.8307 -58.3277 89.5672 -76.936 74.434C-96.7859 58.2912 -83.683 29.8264 -106.686 15.6819C-128.272 2.40883 -165.574 -4.93757 -191.83 3.78656Z" fill="white"/>
</svg>
