<svg xmlns="http://www.w3.org/2000/svg" width="1600" height="1600" viewBox="0 0 1600 1600" version="1.1"><path d="" stroke="none" fill="#088444" fill-rule="evenodd"/><path d="M 722 43.856 L 646.500 87.584 646.249 706.375 C 646.110 1050.995, 645.618 1325.019, 645.139 1324.833 C 644.666 1324.650, 619.476 1310.100, 589.161 1292.500 L 534.043 1260.500 533.771 706.750 L 533.500 153.001 449.960 201.250 C 404.013 227.788, 308.053 283.250, 236.716 324.500 L 107.012 399.500 107.016 800 L 107.019 1200.500 185.370 1245.750 C 228.463 1270.637, 264.008 1291, 264.359 1291 C 264.710 1291, 265.111 1111.385, 265.249 891.856 L 265.500 492.712 321 460.500 L 376.500 428.288 376.751 892.502 L 377.002 1356.716 395.751 1367.515 C 406.063 1373.455, 500.794 1428.194, 606.266 1489.157 C 711.737 1550.121, 798.423 1600, 798.903 1600 C 799.685 1600, 994.223 1487.749, 1362.243 1274.945 L 1490.987 1200.500 1490.987 800 L 1490.987 399.500 1362.243 325.055 C 963.614 94.550, 799.656 0.007, 798.640 0.064 C 798.013 0.099, 763.525 19.805, 722 43.856 M 809 796.050 C 809 1429.737, 809.216 1550.131, 810.354 1549.695 C 811.098 1549.409, 956.560 1465.912, 1133.604 1364.145 L 1455.500 1179.116 1455.500 796.343 L 1455.500 413.571 1135 229.346 C 958.725 128.023, 813.263 44.394, 811.750 43.504 L 809 41.887 809 796.050 M 956.574 271.760 C 955.682 272.651, 955.898 1322.819, 956.790 1323.370 C 957.471 1323.791, 1260.256 1151.091, 1262.231 1149.155 C 1262.802 1148.595, 1078.047 976.134, 1063.308 963.470 L 1059.782 960.440 1114.503 902.470 C 1144.600 870.586, 1169.756 843.935, 1170.405 843.244 C 1171.333 842.255, 1184.535 854.246, 1232.333 899.494 C 1265.744 931.122, 1293.288 957, 1293.541 957 C 1293.793 957, 1294 846.141, 1294 710.647 L 1294 464.294 1199.250 409.963 C 980.303 284.415, 957.121 271.213, 956.574 271.760" stroke="none" fill="#048444" fill-rule="evenodd"/></svg>