<svg height="512pt" viewBox="-32 0 512 512" width="512pt" xmlns="http://www.w3.org/2000/svg"><path d="m377.179688 310.996094c-.660157-.195313 5.804687 1.105468-97.789063-19.050782v-23.003906c25.0625-16.898437 38.082031-40.941406 40.6875-67.320312 12.5625-.511719 22.621094-10.890625 22.621094-23.570313-.003907-13.4375.003906-17.933593-.007813-18.394531 21.257813-8.429688 17.53125-39.664062-5.050781-42.867188v-7.894531c0-60.042969-48.851563-108.894531-108.898437-108.894531h-9.214844c-60.042969 0-108.894532 48.851562-108.894532 108.898438v7.890624c-22.539062 3.199219-26.339843 34.429688-5.054687 42.867188-.007813.460938-.003906 4.960938-.003906 18.394531 0 12.683594 10.058593 23.058594 22.617187 23.574219 2.601563 26.320312 15.496094 50.332031 40.6875 67.316406v23.003906c-103.8125 20.199219-97.125 18.855469-97.789062 19.050782-47.835938 14.082031-71.089844 40.128906-71.089844 79.628906v87.441406c0 18.710938 15.222656 33.933594 33.9375 33.933594h380.398438c18.710937 0 33.933593-15.222656 33.933593-33.933594v-87.441406c0-39.5-23.25-65.546875-71.089843-79.628906zm56.089843 79.628906v21.171875h-56.355469v-85.195313c38.929688 12.382813 56.355469 32.25 56.355469 64.023438zm-160.15625-364.460938c3.804688 2.050782 7.453125 4.351563 10.921875 6.886719v12.308594c-2.859375.761719-8.058594.761719-10.921875 0zm-54.4375-11.15625c.734375-.007812 10.1875-.007812 10.921875 0v53.359376c-2.863281.761718-8.0625.761718-10.921875 0zm-54.4375 18.042969c3.46875-2.535156 7.113281-4.835937 10.917969-6.886719v19.195313c-2.859375.761719-8.058594.761719-10.917969 0zm-15.003906 13.664063c.105469.191406-2.019531 14.214844 20.464844 14.214844 12.621093 0 20.460937-4.933594 20.460937-12.871094v-28.351563c4.371094-1.445312 8.886719-2.574219 13.511719-3.363281v54.722656c0 9.617188 10.890625 12.867188 20.464844 12.867188 12.621093 0 20.460937-4.929688 20.460937-12.867188v-54.722656c4.628906.789062 9.140625 1.917969 13.511719 3.363281v28.351563c0 7.9375 7.839844 12.871094 20.460937 12.871094 22.839844 0 20.335938-13.980469 20.464844-14.214844 27.878906 31.480468 23.046875 66.550781 23.597656 69.851562h-196.996093c.558593-3.339844-4.398438-38.242187 23.597656-69.851562zm-6.480469 147.265625c-.207031-9.675781-12.191406-7.003907-13.589844-7.339844-4.734374 0-8.585937-3.855469-8.585937-8.589844v-16.832031h29.785156c9.921875 0 9.933594-15.003906 0-15.003906h-36.578125c-9.6875 0-9.6875-14.644532 0-14.644532h220.703125c9.691407 0 9.679688 14.644532 0 14.644532h-154.117187c-9.917969 0-9.933594 15.003906 0 15.003906h147.324218v16.832031c0 4.734375-3.851562 8.589844-8.589843 8.589844-1.546875.371094-13.378907-2.304687-13.585938 7.339844-.988281 46.074219-39.863281 76.570312-81.382812 77.070312-41.398438-.5-80.394531-30.882812-81.382813-77.070312zm121.632813 83.347656v20.800781c0 22.195313-18.054688 40.253906-40.25 40.253906-22.195313 0-40.253907-18.058593-40.253907-40.253906v-20.800781c24.808594 11.207031 54.054688 11.949219 80.503907 0zm-131.285157 36.859375 36.503907-7.101562c4.292969 26.222656 27.113281 46.296874 54.53125 46.296874s50.234375-20.074218 54.527343-46.296874l36.507813 7.101562v56.148438c0 6.445312-5.242187 11.6875-11.691406 11.6875h-158.691407c-6.441406 0-11.6875-5.242188-11.6875-11.6875zm-61.742187 12.414062v85.195313h-56.355469v-21.171875c0-31.773438 17.421875-51.640625 56.355469-64.023438zm-37.421875 170.394532c-10.441406 0-18.933594-8.492188-18.933594-18.929688v-51.269531h56.355469v70.199219zm276.777344-55.933594v13.335938h-17.136719c-9.917969 0-9.933594 15.003906 0 15.003906h17.136719v27.59375h-173.15625v-27.597656h126.011718c9.917969 0 9.933594-15.003907 0-15.003907h-126.011718c.332031-12.285156-.722656-14.183593.847656-14.183593 181.761719.402343 172.308594-.828126 172.308594.851562zm51.195312 55.933594h-36.195312v-55.9375c0-8.738282-7.109375-15.847656-15.851563-15.847656h-171.457031c-8.742188 0-15.851562 7.109374-15.851562 15.847656v55.9375h-36.191407v-173.722656l31.734375-6.167969v53.230469c0 14.71875 11.972656 26.691406 26.691406 26.691406h158.691407c14.71875 0 26.691406-11.972656 26.691406-26.691406v-53.230469l31.734375 6.167969v173.722656zm52.425782 0h-37.425782v-70.199219h56.355469v51.269531c.003906 10.4375-8.492187 18.929688-18.929687 18.929688zm0 0"/></svg>